<svg viewBox="0 0 24 24" width="24" height="24" fill="none" stroke="currentColor" stroke-width="1.5" stroke-linecap="round" stroke-linejoin="round" aria-hidden="true" data-icon="books" xmlns="http://www.w3.org/2000/svg"><rect x="3.5" y="5" width="5" height="15" rx="1.5"></rect><rect x="8.5" y="3.5" width="5" height="16.5" rx="1.5"></rect><path d="m15.1 5.55 2.4-.55c.8-.2 1.35.2 1.55 1l2.6 12c.15.8-.2 1.35-1 1.55l-2.4.55c-.8.2-1.35-.2-1.55-1l-2.6-12c-.15-.8.2-1.35 1-1.55Z"></path><path d="M5.5 8h1m4-1h1m5.2 1.8 1-.2M5.5 17h1m4 0h1m7.3-.4 1-.2"></path></svg>
